<?xml version="1.0" encoding="utf-8"?>
<!-- Generator: Adobe Illustrator 18.0.0, SVG Export Plug-In . SVG Version: 6.00 Build 0)  -->
<!DOCTYPE svg PUBLIC "-//W3C//DTD SVG 1.1//EN" "http://www.w3.org/Graphics/SVG/1.1/DTD/svg11.dtd">
<svg version="1.1" id="Layer_1" xmlns="http://www.w3.org/2000/svg" xmlns:xlink="http://www.w3.org/1999/xlink" x="0px" y="0px"
	 width="100px" height="83px" viewBox="0 0 100 83" enable-background="new 0 0 100 83" xml:space="preserve">
<g>
	<g id="cores_antigas" display="none">
		<path display="inline" fill="#FFFFFF" d="M55.4,22.5c1.6,0,2.8,1.3,2.8,2.8v13.2c0,1.6-1.3,2.8-2.8,2.8H42.1
			c-1.6,0-2.8-1.3-2.8-2.8V25.3c0-1.6,1.3-2.8,2.8-2.8H55.4z"/>
		<path display="inline" fill="#FFFFFF" d="M55.4,43.3c1.6,0,2.8,1.3,2.8,2.8v13.2c0,1.6-1.3,2.8-2.8,2.8H42.1
			c-1.6,0-2.8-1.3-2.8-2.8V46.1c0-1.6,1.3-2.8,2.8-2.8H55.4z"/>
		<path display="inline" fill="#FFFFFF" d="M55.4,64.1c1.6,0,2.8,1.3,2.8,2.8v13.2c0,1.6-1.3,2.8-2.8,2.8H42.1
			c-1.6,0-2.8-1.3-2.8-2.8V66.9c0-1.6,1.3-2.8,2.8-2.8H55.4z"/>
		<path display="inline" fill="#FFFFFF" d="M76.2,1.7C77.7,1.7,79,3,79,4.5v13.2c0,1.6-1.3,2.8-2.8,2.8H62.9c-1.6,0-2.8-1.3-2.8-2.8
			V4.5c0-1.6,1.3-2.8,2.8-2.8H76.2z"/>
		<path display="inline" fill="#FFFFFF" d="M76.2,22.5c1.6,0,2.8,1.3,2.8,2.8v13.2c0,1.6-1.3,2.8-2.8,2.8H62.9
			c-1.6,0-2.8-1.3-2.8-2.8V25.3c0-1.6,1.3-2.8,2.8-2.8H76.2z"/>
		<path display="inline" fill="#FFFFFF" d="M76.2,43.3c1.6,0,2.8,1.3,2.8,2.8v13.2c0,1.6-1.3,2.8-2.8,2.8H62.9
			c-1.6,0-2.8-1.3-2.8-2.8V46.1c0-1.6,1.3-2.8,2.8-2.8H76.2z"/>
		<path display="inline" fill="#FFFFFF" d="M97,43.3c1.6,0,2.8,1.3,2.8,2.8v13.2c0,1.6-1.3,2.8-2.8,2.8H83.7c-1.6,0-2.8-1.3-2.8-2.8
			V46.1c0-1.6,1.3-2.8,2.8-2.8H97z"/>
		<path display="inline" fill="#FFFFFF" d="M76.2,64.1c1.6,0,2.8,1.3,2.8,2.8v13.2c0,1.6-1.3,2.8-2.8,2.8H62.9
			c-1.6,0-2.8-1.3-2.8-2.8V66.9c0-1.6,1.3-2.8,2.8-2.8H76.2z"/>
		<path display="inline" fill="#FFFFFF" d="M97,1.7c1.6,0,2.8,1.3,2.8,2.8v13.2c0,1.6-1.3,2.8-2.8,2.8H83.7c-1.6,0-2.8-1.3-2.8-2.8
			V4.5c0-1.6,1.3-2.8,2.8-2.8H97z"/>
		<path display="inline" fill="#FFFFFF" d="M60.1,11.6c0,6-4.9,10.9-10.9,10.9c-6,0-10.9-4.9-10.9-10.9c0-6,4.9-10.9,10.9-10.9
			C55.2,0.7,60.1,5.6,60.1,11.6"/>
	</g>
	<g>
		<path fill="#FFFFFF" d="M78.1,17.2c0,1-0.8,1.7-1.7,1.7H62.3c-0.9,0-1.7-0.8-1.7-1.7V3c0-0.9,0.8-1.7,1.7-1.7h14.1
			c0.9,0,1.7,0.8,1.7,1.7V17.2L78.1,17.2z"/>
		<path fill="#FFFFFF" d="M99.2,17.2c0,1-0.8,1.7-1.7,1.7H83.4c-0.9,0-1.7-0.8-1.7-1.7V3c0-0.9,0.8-1.7,1.7-1.7h14.1
			c0.9,0,1.7,0.8,1.7,1.7V17.2L99.2,17.2z"/>
		<path fill="#FFFFFF" d="M99.2,59.7c0,1-0.8,1.7-1.7,1.7H83.4c-0.9,0-1.7-0.8-1.7-1.7V45.4c0-1,0.8-1.7,1.7-1.7h14.1
			c0.9,0,1.7,0.8,1.7,1.7V59.7L99.2,59.7z"/>
		<path fill="#FFFFFF" d="M57.1,38.4c0,1-0.8,1.7-1.7,1.7H41.3c-0.9,0-1.7-0.8-1.7-1.7V24.2c0-1,0.8-1.7,1.7-1.7h14.1
			c0.9,0,1.7,0.8,1.7,1.7V38.4L57.1,38.4z"/>
		<path fill="#FFFFFF" d="M78.1,38.4c0,1-0.8,1.7-1.7,1.7H62.3c-0.9,0-1.7-0.8-1.7-1.7V24.2c0-1,0.8-1.7,1.7-1.7h14.1
			c0.9,0,1.7,0.8,1.7,1.7V38.4L78.1,38.4z"/>
		<path fill="#FFFFFF" d="M57.1,59.7c0,1-0.8,1.7-1.7,1.7H41.3c-0.9,0-1.7-0.8-1.7-1.7V45.4c0-1,0.8-1.7,1.7-1.7h14.1
			c0.9,0,1.7,0.8,1.7,1.7V59.7L57.1,59.7z"/>
		<path fill="#FFFFFF" d="M78.1,59.7c0,1-0.8,1.7-1.7,1.7H62.3c-0.9,0-1.7-0.8-1.7-1.7V45.4c0-1,0.8-1.7,1.7-1.7h14.1
			c0.9,0,1.7,0.8,1.7,1.7V59.7L78.1,59.7z"/>
		<path fill="#FFFFFF" d="M57.1,80.9c0,1-0.8,1.7-1.7,1.7H41.3c-0.9,0-1.7-0.8-1.7-1.7V66.7c0-1,0.8-1.7,1.7-1.7h14.1
			c0.9,0,1.7,0.8,1.7,1.7V80.9L57.1,80.9z"/>
		<path fill="#FFFFFF" d="M78.1,80.9c0,1-0.8,1.7-1.7,1.7H62.3c-0.9,0-1.7-0.8-1.7-1.7V66.7c0-1,0.8-1.7,1.7-1.7h14.1
			c0.9,0,1.7,0.8,1.7,1.7V80.9L78.1,80.9z"/>
		<path fill="#FFFFFF" d="M58,10.1c0,5.4-4.3,9.7-9.6,9.7c-5.3,0-9.6-4.4-9.6-9.7c0-5.4,4.3-9.7,9.6-9.7C53.7,0.4,58,4.7,58,10.1
			L58,10.1z"/>
	</g>
	<g>
		<path fill="#FFFFFF" d="M18.4,77.8l-18,5.2v-2.2l8.9-2.5c2.4-0.7,4.6-1.3,6.7-1.7v0c-2.1-0.4-4.4-1.1-6.7-1.8L0.4,72v-2.2l18,5.6
			V77.8z"/>
		<path fill="#FFFFFF" d="M0.4,66.1h18v2h-18V66.1z"/>
		<path fill="#FFFFFF" d="M0.7,62.5c-0.2-1-0.4-2.5-0.4-3.9c0-2.2,0.5-3.6,1.5-4.6c0.8-0.8,2-1.2,3.4-1.2c2.4,0,4,1.3,4.6,3h0.1
			c0.5-1.2,1.8-1.9,3.6-2.3c2.5-0.5,4.2-0.9,4.9-1.2v2.1c-0.5,0.3-2.1,0.6-4.3,1.1c-2.5,0.5-3.4,1.3-3.5,3.2v1.9h7.8v2H0.7z
			 M8.9,60.5v-2.1c0-2.2-1.4-3.6-3.4-3.6c-2.3,0-3.3,1.5-3.4,3.6c0,1,0.1,1.7,0.2,2H8.9z"/>
		<path fill="#FFFFFF" d="M2.4,46.7v4.8h-2V39.9h2v4.8h16v2.1H2.4z"/>
		<path fill="#FFFFFF" d="M0.4,36.1h10.7c4,0,5.7-1.6,5.7-3.7c0-2.3-1.8-3.8-5.7-3.8H0.4v-2.1h10.5c5.5,0,7.8,2.6,7.8,6
			c0,3.2-2.1,5.7-7.7,5.7H0.4V36.1z"/>
		<path fill="#FFFFFF" d="M12.8,21.2l5.7,1.6v2.1l-18-5.4v-2.5l18-5.4v2.2l-5.7,1.7V21.2z M11,16l-5.2,1.5c-1.2,0.4-2.2,0.6-3.3,0.8
			v0c1.1,0.2,2.2,0.5,3.3,0.8l5.2,1.5V16z"/>
		<path fill="#FFFFFF" d="M0.4,9.4v-2h16V0.6h1.9v8.8H0.4z"/>
	</g>
</g>
</svg>
